<?xml version="1.0" encoding="UTF-8" standalone="no"?>
<!-- Generator: Adobe Illustrator 16.0.0, SVG Export Plug-In . SVG Version: 6.00 Build 0)  -->
 <!-- width="800"
   height="600" -->
<svg
   xmlns:dc="http://purl.org/dc/elements/1.1/"
   xmlns:cc="http://creativecommons.org/ns#"
   xmlns:rdf="http://www.w3.org/1999/02/22-rdf-syntax-ns#"
   xmlns:svg="http://www.w3.org/2000/svg"
   xmlns="http://www.w3.org/2000/svg"
   xmlns:sodipodi="http://sodipodi.sourceforge.net/DTD/sodipodi-0.dtd"
   xmlns:inkscape="http://www.inkscape.org/namespaces/inkscape"
   version="1.1"
   x="0px"
   y="0px"
   width="800"
   height="600"
   viewBox="310 230 180 130"
   enable-background="new 0 0 800 600"
   xml:space="preserve"
   id="svg4248"
   inkscape:version="0.91 r"
   sodipodi:docname="MaterialsCloud_Vertical_White.svg"><metadata
     id="metadata4292"><rdf:RDF><cc:Work
         rdf:about=""><dc:format>image/svg+xml</dc:format><dc:type
           rdf:resource="http://purl.org/dc/dcmitype/StillImage" /><dc:title></dc:title></cc:Work></rdf:RDF></metadata><defs
     id="defs4290"><linearGradient
       id="Mark_2_"
       gradientUnits="userSpaceOnUse"
       x1="427.43069"
       y1="264.75589"
       x2="361.93079"
       y2="316.75562"><stop
         offset="0"
         style="stop-color:#F20000"
         id="stop4283" /><stop
         offset="1"
         style="stop-color:#BF0000"
         id="stop4285" /></linearGradient></defs><sodipodi:namedview
     pagecolor="#ffffff"
     bordercolor="#666666"
     borderopacity="1"
     objecttolerance="10"
     gridtolerance="10"
     guidetolerance="10"
     inkscape:pageopacity="0"
     inkscape:pageshadow="2"
     inkscape:window-width="1855"
     inkscape:window-height="1056"
     id="namedview4288"
     showgrid="false"
     inkscape:zoom="1.5325"
     inkscape:cx="400"
     inkscape:cy="300"
     inkscape:window-x="65"
     inkscape:window-y="24"
     inkscape:window-maximized="1"
     inkscape:current-layer="svg4248" /><g
     id="Logo_x5F_Black" /><g
     id="Font"><path
       d="m 269.426,353.702 0,-19.516 3.612,0 6.692,9.996 6.692,-9.996 3.612,0 0,19.516 -4.06,0 0,-11.9 -6.244,9.24 -6.272,-9.24 0,11.9 -4.032,0 z"
       id="path4254"
       inkscape:connector-curvature="0" /><path
       d="m 293.438,353.702 8.064,-19.516 3.836,0 8.064,19.516 -4.592,0 -1.316,-3.276 -8.148,0 -1.316,3.276 -4.592,0 z m 7.141,-6.72 5.684,0 -2.828,-7.084 -2.856,7.084 z"
       id="path4256"
       inkscape:connector-curvature="0" /><path
       d="m 318.622,353.702 0,-15.596 -5.292,0 0,-3.92 14.812,0 0,3.92 -5.208,0 0,15.596 -4.312,0 z"
       id="path4258"
       inkscape:connector-curvature="0" /><path
       d="m 331.49,353.702 0,-19.516 13.328,0 0,3.92 -9.016,0 0,3.668 8.428,0 0,3.836 -8.428,0 0,4.172 9.212,0 0,3.92 -13.524,0 z"
       id="path4260"
       inkscape:connector-curvature="0" /><path
       d="m 349.779,353.702 0,-19.516 8.177,0 c 1.819,0 3.387,0.615 4.676,1.876 1.315,1.231 1.959,2.744 1.959,4.563 0,2.492 -1.371,4.648 -3.471,5.544 l 4.76,7.532 -4.873,0 -4.06,-6.496 -0.056,0 -2.828,0 0,6.496 -4.284,0 z m 4.284,-10.304 3.416,0 c 1.68,0 2.8,-1.064 2.8,-2.716 0,-1.484 -1.063,-2.576 -2.437,-2.576 l -3.779,0 0,5.292 z"
       id="path4262"
       inkscape:connector-curvature="0" /><path
       d="m 369.444,353.702 0,-19.516 4.312,0 0,19.516 -4.312,0 z"
       id="path4264"
       inkscape:connector-curvature="0" /><path
       d="m 377.171,353.702 8.064,-19.516 3.836,0 8.064,19.516 -4.592,0 -1.316,-3.276 -8.148,0 -1.315,3.276 -4.593,0 z m 7.141,-6.72 5.684,0 -2.828,-7.084 -2.856,7.084 z"
       id="path4266"
       inkscape:connector-curvature="0" /><path
       d="m 400.54,353.702 0,-19.516 4.312,0 0,15.596 7.616,0 0,3.92 -11.928,0 z"
       id="path4268"
       inkscape:connector-curvature="0" /><path
       d="m 418.314,347.542 c 1.035,1.708 2.659,2.576 4.899,2.576 1.988,0 2.912,-0.896 2.912,-1.932 0,-0.729 -0.42,-1.232 -1.063,-1.624 -0.364,-0.252 -1.148,-0.588 -1.681,-0.729 -0.476,-0.195 -1.596,-0.56 -2.156,-0.784 -3.052,-1.119 -4.731,-2.716 -4.731,-5.655 0,-1.681 0.616,-3.024 1.876,-4.004 1.26,-1.009 2.8,-1.513 4.62,-1.513 2.828,0 4.983,1.064 6.496,3.192 l -2.884,2.184 c -0.784,-1.008 -1.961,-1.512 -3.5,-1.512 -1.429,0 -2.353,0.672 -2.353,1.596 0,0.645 0.168,1.036 0.756,1.4 0.309,0.168 0.616,0.308 0.868,0.42 l 1.4,0.476 c 0.644,0.225 1.204,0.421 1.68,0.616 3.556,1.344 4.984,2.996 4.984,5.796 0,3.612 -2.465,5.964 -7.252,5.964 -3.948,0 -6.692,-1.764 -8.009,-4.312 l 3.138,-2.155 z"
       id="path4270"
       inkscape:connector-curvature="0" /><path
       d="m 451.13,337.126 -1.483,1.345 c -1.513,-1.765 -3.5,-2.633 -5.965,-2.633 -2.296,0 -4.199,0.784 -5.712,2.324 -1.512,1.54 -2.268,3.472 -2.268,5.796 0,2.324 0.756,4.284 2.268,5.824 1.513,1.54 3.416,2.296 5.712,2.296 2.521,0 4.536,-0.924 6.049,-2.744 l 1.483,1.344 c -1.96,2.269 -4.479,3.416 -7.532,3.416 -2.827,0 -5.235,-0.951 -7.224,-2.884 -1.96,-1.932 -2.939,-4.368 -2.939,-7.252 0,-2.884 0.979,-5.292 2.939,-7.224 1.988,-1.933 4.396,-2.912 7.224,-2.912 2.996,0 5.488,1.092 7.448,3.304 z"
       id="path4272"
       inkscape:connector-curvature="0" /><path
       d="m 455.655,353.702 0,-19.516 2.184,0 0,17.5 8.036,0 0,2.016 -10.22,0 z"
       id="path4274"
       inkscape:connector-curvature="0" /><path
       d="m 468.129,343.958 c 0,-2.884 0.979,-5.292 2.939,-7.224 1.988,-1.933 4.396,-2.912 7.224,-2.912 2.828,0 5.236,0.979 7.196,2.912 1.988,1.932 2.968,4.34 2.968,7.224 0,2.884 -0.979,5.32 -2.968,7.252 -1.96,1.933 -4.368,2.884 -7.196,2.884 -2.827,0 -5.235,-0.951 -7.224,-2.884 -1.96,-1.932 -2.939,-4.368 -2.939,-7.252 z m 2.155,0 c 0,2.324 0.756,4.284 2.269,5.824 1.54,1.54 3.443,2.296 5.739,2.296 2.297,0 4.2,-0.756 5.713,-2.296 1.512,-1.54 2.268,-3.5 2.268,-5.824 0,-2.324 -0.756,-4.256 -2.268,-5.796 -1.513,-1.54 -3.416,-2.324 -5.713,-2.324 -2.296,0 -4.199,0.784 -5.739,2.324 -1.513,1.54 -2.269,3.472 -2.269,5.796 z"
       id="path4276"
       inkscape:connector-curvature="0" /><path
       d="m 493.401,334.187 2.185,0 0,12.46 c 0,3.5 1.96,5.376 5.124,5.376 3.164,0 5.124,-1.876 5.124,-5.376 l 0,-12.46 2.184,0 0,12.684 c 0,2.296 -0.672,4.06 -2.016,5.32 -1.344,1.231 -3.108,1.848 -5.292,1.848 -2.185,0 -3.948,-0.616 -5.292,-1.848 -1.344,-1.261 -2.017,-3.024 -2.017,-5.32 l 0,-12.684 z"
       id="path4278"
       inkscape:connector-curvature="0" /><path
       d="m 514.223,353.702 0,-19.516 6.271,0 c 3.108,0 5.572,0.896 7.364,2.688 1.82,1.792 2.716,4.145 2.716,7.084 0,2.94 -0.896,5.292 -2.688,7.084 -1.792,1.765 -4.256,2.66 -7.364,2.66 l -6.299,0 z m 2.183,-2.015 3.948,0 c 5.264,0 8.036,-3.024 8.036,-7.729 0,-4.731 -2.772,-7.756 -8.064,-7.756 l -3.92,0 0,15.485 z"
       id="path4280"
       inkscape:connector-curvature="0" /></g><path
     id="Mark"
     d="m 430.402,270.293 c -0.018,-0.01 -0.041,-0.02 -0.068,-0.03 -0.775,-0.285 -1.102,-0.886 -1.39,-1.754 -0.649,-1.956 -2.139,-3.379 -4.002,-4.076 -1.004,-0.402 -1.578,-1.356 -1.689,-1.691 l -0.003,0.004 c -3.382,-9.914 -12.835,-16.84 -23.52,-16.84 -10.684,0 -20.139,6.926 -23.519,16.84 l -0.003,-0.004 c -0.114,0.345 -0.715,1.35 -1.774,1.729 -1.841,0.723 -3.202,1.891 -3.927,4.117 -0.281,0.864 -0.562,1.389 -1.38,1.69 -0.027,0.011 -0.051,0.021 -0.068,0.031 -7.797,3.147 -13.038,10.739 -13.038,19.324 0,11.507 9.362,20.872 20.87,20.872 l 14.195,0 c 2.052,0 2.317,0.545 3.007,1.703 1.097,1.842 3.28,3.051 5.637,3.051 2.563,0 4.797,-1.439 5.937,-3.551 0.385,-0.602 0.979,-1.203 2.705,-1.203 l 14.233,0 c 11.507,0 20.869,-9.364 20.869,-20.872 0.001,-8.601 -5.255,-16.202 -13.072,-19.34 z m -7.831,-2.405 c 1.574,0 2.851,1.276 2.851,2.851 0,1.574 -1.276,2.85 -2.851,2.85 -1.575,0 -2.852,-1.276 -2.852,-2.85 0.001,-1.575 1.277,-2.851 2.852,-2.851 z m -42.27,-4.76 c 3.088,-7.845 10.779,-13.247 19.43,-13.247 8.649,0 16.342,5.401 19.431,13.246 0.531,1.543 -0.486,2.135 -0.486,2.135 0,0 0.001,10e-4 0.002,10e-4 -1.464,0.972 -1.948,2.085 -2.108,2.453 0,0 -10e-4,-0.001 -0.002,-0.001 -0.146,0.318 -0.42,1.049 -1.246,1.049 l -31.162,0 c -0.816,0 -1.035,-0.495 -1.241,-1.039 -0.061,-0.159 -0.403,-1.332 -2.156,-2.491 -0.451,-0.298 -0.923,-0.766 -0.462,-2.106 z m -3.384,4.76 c 1.575,0 2.852,1.276 2.852,2.851 0,1.574 -1.276,2.85 -2.852,2.85 -1.573,0 -2.85,-1.276 -2.85,-2.85 0,-1.575 1.277,-2.851 2.85,-2.851 z m 13.499,38.639 -13.524,0 c -9.316,0 -16.895,-7.58 -16.895,-16.895 0,-6.533 3.752,-12.355 9.446,-15.145 0.436,-0.184 1.473,-0.404 2.139,0.411 1.049,1.341 2.263,2.275 4.354,2.526 0.78,0.094 1.454,0.051 1.454,0.051 1.082,-0.123 1.526,0.47 1.706,0.759 l 14.075,23.253 c 1.697,2.541 0.741,5.04 -2.755,5.04 z m 9.332,4.838 c -1.574,0 -2.851,-1.277 -2.851,-2.85 0,-1.576 1.276,-2.852 2.851,-2.852 1.575,0 2.851,1.275 2.851,2.852 0,1.573 -1.277,2.85 -2.851,2.85 z m 3.908,-13.145 c -1.074,1.774 -2.267,3.552 -3.926,3.552 -1.662,0 -2.817,-1.778 -3.891,-3.552 l -12.485,-20.629 c -1.712,-2.829 0.098,-4.853 2.228,-4.853 l 28.335,0 c 2.106,0 3.896,1.979 2.282,4.757 l -12.543,20.725 z m 18.949,8.307 -13.98,0 c -2.91,-0.19 -3.813,-2.266 -2.621,-4.51 l 14.548,-24.037 c 0.274,-0.478 0.704,-0.598 1.52,-0.505 l -0.002,-0.003 c 0.005,0 0.01,0 0.014,0.001 2.634,0.357 4.689,-1.189 5.737,-2.478 l 0,10e-4 c 0.661,-0.922 1.753,-0.712 2.203,-0.524 5.711,2.784 9.477,8.613 9.477,15.16 -10e-4,9.316 -7.58,16.895 -16.896,16.895 z"
     style="fill:#d21f15;fill-opacity:1"
     inkscape:connector-curvature="0" /></svg>